<svg width="144" height="48" viewBox="0 0 144 48" fill="none" xmlns="http://www.w3.org/2000/svg">
<path fill-rule="evenodd" clip-rule="evenodd" d="M43.9164 7.35156H23.6468C21.5942 7.35156 19.7604 8.63532 19.0582 10.5643L11.2051 32.1409C10.5003 34.0642 8.67014 35.3438 6.62109 35.3438H26.8906C28.9433 35.3438 30.7771 34.0601 31.4793 32.1311L39.3324 10.5535C40.0377 8.63067 41.8673 7.35156 43.9164 7.35156Z" fill="#C4A16E"/>
<path fill-rule="evenodd" clip-rule="evenodd" d="M17.6248 10.0419C18.5428 7.51939 20.9628 5.8253 23.6468 5.8253H25.6699L26.8383 2.61461C27.4142 1.0447 28.9086 0 30.5815 0H14.0276C12.3511 0 10.8537 1.04833 10.2804 2.62392L3.86673 20.2447C3.29134 21.8156 1.79647 22.8609 0.122559 22.8609H12.9591L17.6248 10.0419Z" fill="#DBC8A7"/>
<path fill-rule="evenodd" clip-rule="evenodd" d="M49.5194 17.0409H50.1264C50.5377 17.0409 50.917 17.0973 51.2632 17.2101C51.6093 17.3239 51.9074 17.4916 52.1578 17.7146C52.4077 17.9371 52.6018 18.2103 52.7384 18.5316C52.876 18.854 52.9443 19.2219 52.9443 19.6322C52.9443 20.0508 52.8688 20.4223 52.7182 20.7483C52.5671 21.0738 52.3632 21.3501 52.1066 21.5762C51.8494 21.8023 51.5488 21.9736 51.2068 22.0905C50.8637 22.2069 50.5036 22.2649 50.1264 22.2649H49.5194V23.1601H47.9878V22.2649H47.3803C46.9695 22.2649 46.5902 22.2085 46.244 22.0957C45.8979 21.9824 45.6014 21.8142 45.3546 21.5917C45.1078 21.3687 44.9158 21.096 44.7787 20.7742C44.641 20.4518 44.5732 20.0849 44.5732 19.6741C44.5732 19.255 44.6483 18.8835 44.7994 18.5575C44.9499 18.232 45.1543 17.9557 45.4115 17.7296C45.6681 17.5035 45.9667 17.3327 46.3061 17.2152C46.6451 17.0988 47.0036 17.0409 47.3803 17.0409H47.9878V16.125H49.5194V17.0409ZM47.4321 18.3676C47.0005 18.3676 46.6709 18.484 46.4448 18.7174C46.2187 18.9502 46.1054 19.2653 46.1054 19.6638C46.1054 20.0674 46.2233 20.3799 46.4603 20.5993C46.6968 20.8187 47.0207 20.9284 47.4321 20.9284H47.9878V18.3676H47.4321ZM50.0751 20.9382C50.5067 20.9382 50.8358 20.8218 51.0624 20.5884C51.2885 20.3556 51.4018 20.0404 51.4018 19.6431C51.4018 19.2384 51.2834 18.9259 51.0469 18.7065C50.8104 18.4871 50.4865 18.3774 50.0751 18.3774H49.5194V20.9382H50.0751Z" fill="#E4E4E3"/>
<path fill-rule="evenodd" clip-rule="evenodd" d="M59.3718 16.3977C59.8245 16.5798 60.21 16.8318 60.5293 17.1542C60.8475 17.4765 61.0964 17.8548 61.2744 18.2905C61.4529 18.7262 61.5419 19.1996 61.5419 19.715C61.5419 20.2081 61.4529 20.6728 61.2744 21.1084C61.0964 21.5436 60.846 21.9239 60.5236 22.2499C60.2017 22.5754 59.8163 22.8325 59.3666 23.0209C58.9175 23.2092 58.4223 23.3039 57.881 23.3039C57.3455 23.3039 56.856 23.2128 56.41 23.0317C55.9645 22.8491 55.579 22.5981 55.253 22.2758C54.9275 21.9534 54.6755 21.5731 54.4975 21.1343C54.319 20.6955 54.2295 20.2215 54.2295 19.715C54.2295 19.2219 54.319 18.7546 54.4975 18.3158C54.6755 17.877 54.9275 17.4967 55.253 17.1749C55.579 16.852 55.9645 16.5974 56.41 16.408C56.856 16.2197 57.3455 16.125 57.881 16.125C58.4223 16.125 58.9195 16.2161 59.3718 16.3977ZM56.9911 17.6783C56.7272 17.7948 56.5041 17.9521 56.3225 18.1513C56.1414 18.3505 56.0022 18.5833 55.906 18.8509C55.8097 19.1179 55.7621 19.4061 55.7621 19.715C55.7621 20.0229 55.8097 20.3126 55.906 20.5832C56.0022 20.8544 56.143 21.0888 56.3277 21.2885C56.5129 21.4867 56.736 21.6435 56.9962 21.7557C57.257 21.8696 57.552 21.9255 57.881 21.9255C58.2169 21.9255 58.5165 21.868 58.7809 21.7506C59.0442 21.6352 59.2678 21.4753 59.4489 21.2735C59.6305 21.0707 59.7681 20.8363 59.8608 20.5682C59.9529 20.3012 59.9994 20.0161 59.9994 19.715C59.9994 19.3993 59.9513 19.106 59.8556 18.8348C59.7593 18.5652 59.6207 18.3298 59.439 18.1316C59.2569 17.9319 59.0344 17.7777 58.77 17.6685C58.5066 17.5588 58.2101 17.5035 57.881 17.5035C57.552 17.5035 57.2549 17.5619 56.9911 17.6783Z" fill="#E4E4E3"/>
<path fill-rule="evenodd" clip-rule="evenodd" d="M64.6402 18.9643H67.6538V16.2695H69.2066V23.1608H67.6538V20.3945H64.6402V23.1608H63.0874V16.2695H64.6402V18.9643Z" fill="#E4E4E3"/>
<path fill-rule="evenodd" clip-rule="evenodd" d="M77.4432 21.772H78.4413V22.1937L78.3073 24.6003H76.9185L76.8569 23.1608H72.1984L72.1162 24.6003H70.7175L70.6353 22.204V21.7833H70.9229C71.0668 21.7833 71.2112 21.7311 71.355 21.6281C71.4989 21.5251 71.6194 21.3642 71.7151 21.1448C71.9004 20.7329 72.0339 20.202 72.1162 19.5506C72.1984 18.8991 72.2393 18.1799 72.2393 17.3908V16.2695H77.4432V21.772ZM73.5769 20.1467C73.4599 20.84 73.3021 21.3813 73.1034 21.772H75.9007V17.648H73.7616C73.7544 18.6218 73.6928 19.4554 73.5769 20.1467Z" fill="#E4E4E3"/>
<path fill-rule="evenodd" clip-rule="evenodd" d="M50.9495 35.5074H49.3961V30.0463H46.4757V35.5074H44.9224V28.6172H50.9495V35.5074Z" fill="#E4E4E3"/>
<path fill-rule="evenodd" clip-rule="evenodd" d="M57.0395 28.7973C57.3754 28.9168 57.6651 29.085 57.9083 29.3012C58.152 29.5165 58.3388 29.7778 58.4692 30.0826C58.5991 30.3873 58.6643 30.7288 58.6643 31.1055C58.6643 31.5034 58.5908 31.8579 58.4434 32.1699C58.2959 32.4824 58.0936 32.7463 57.8364 32.9621C57.5792 33.1784 57.276 33.3434 56.9267 33.4552C56.5764 33.5696 56.1998 33.6254 55.7951 33.6254H54.3965V35.5074H52.854V28.6172H55.9183C56.3296 28.6172 56.7032 28.6772 57.0395 28.7973ZM55.7951 32.2579C56.2065 32.2579 56.5288 32.1549 56.7622 31.949C56.9945 31.7441 57.1115 31.4657 57.1115 31.1159C57.1115 30.7733 57.007 30.5012 56.7979 30.2983C56.5889 30.096 56.2753 29.9956 55.8567 29.9956H54.3965V32.2579H55.7951Z" fill="#E4E4E3"/>
<path fill-rule="evenodd" clip-rule="evenodd" d="M65.2659 30.0055H61.6356V31.3016H64.8747V32.6485H61.6356V34.1186H65.4408V35.5074H60.1133V28.6172H65.2659V30.0055Z" fill="#E4E4E3"/>
<path fill-rule="evenodd" clip-rule="evenodd" d="M70.6119 31.1256C70.7495 31.0102 70.8184 30.8487 70.8184 30.6433C70.8184 30.382 70.7273 30.1854 70.5457 30.0524C70.3641 29.9184 70.067 29.8511 69.6557 29.8511C69.0115 29.8511 68.4081 30.0674 67.8457 30.4995L67.0437 29.4392C67.4276 29.1107 67.8405 28.8669 68.2829 28.7091C68.7248 28.5518 69.2138 28.4727 69.7483 28.4727C70.1602 28.4727 70.5265 28.5213 70.8489 28.617C71.1713 28.7122 71.4455 28.8462 71.6716 29.018C71.8977 29.1898 72.0711 29.3937 72.1911 29.6302C72.3106 29.8661 72.3707 30.129 72.3707 30.4172C72.3707 30.7121 72.3106 30.9765 72.1911 31.2135C72.0711 31.4505 71.891 31.6363 71.6509 31.7739V31.867C71.98 31.9762 72.2372 32.163 72.4224 32.4269C72.6071 32.6918 72.6998 33.0147 72.6998 33.3992C72.6998 33.7215 72.6366 34.0196 72.5099 34.2943C72.3831 34.5681 72.1942 34.805 71.9438 35.0027C71.6939 35.2019 71.3819 35.3597 71.0083 35.4767C70.6342 35.5931 70.1974 35.651 69.6971 35.651C69.3954 35.651 69.1108 35.6324 68.8433 35.5946C68.5758 35.5574 68.3222 35.4969 68.0822 35.4151C67.8426 35.3328 67.6128 35.2283 67.3929 35.1015C67.174 34.9742 66.9578 34.8185 66.7456 34.6327L67.5575 33.5021C67.9145 33.7836 68.2689 33.9823 68.6218 34.0982C68.9752 34.2152 69.368 34.2736 69.8 34.2736C70.2523 34.2736 70.5897 34.1888 70.8127 34.0216C71.0357 33.854 71.1475 33.632 71.1475 33.3583C71.1475 32.8776 70.8349 32.638 70.2109 32.638H68.4728V31.3015H70.0463C70.2864 31.3015 70.4753 31.243 70.6119 31.1256Z" fill="#E4E4E3"/>
<path fill-rule="evenodd" clip-rule="evenodd" d="M75.7616 33.2043L79.0933 28.6172H80.4511V35.5074H78.919V31.178L75.7512 35.5074H74.2393V28.6172H75.7616V33.2043Z" fill="#E4E4E3"/>
<path fill-rule="evenodd" clip-rule="evenodd" d="M88.6878 34.1186H89.6854V34.5408L89.5514 36.9474H88.1631L88.1015 35.5074H83.4425L83.3608 36.9474H81.9616L81.8799 34.5506V34.1294H82.1671C82.3114 34.1294 82.4553 34.0787 82.5991 33.9747C82.7435 33.8723 82.8635 33.7119 82.9593 33.4925C83.1445 33.0806 83.278 32.5492 83.3608 31.8977C83.4425 31.2463 83.4834 30.526 83.4834 29.7374V28.6172H88.6878V34.1186ZM84.821 32.4943C84.7041 33.1867 84.5468 33.7284 84.3481 34.1186H87.1453V29.9956H85.0062C84.999 30.9684 84.9374 31.8015 84.821 32.4943Z" fill="#E4E4E3"/>
<path fill-rule="evenodd" clip-rule="evenodd" d="M96.2972 30.0055H92.6668V31.3016H95.906V32.6485H92.6668V34.1186H96.4721V35.5074H91.1445V28.6172H96.2972V30.0055Z" fill="#E4E4E3"/>
<path fill-rule="evenodd" clip-rule="evenodd" d="M99.6686 31.3115H102.682V28.6172H104.235V35.5074H102.682V32.7412H99.6686V35.5074H98.1157V28.6172H99.6686V31.3115Z" fill="#E4E4E3"/>
<path fill-rule="evenodd" clip-rule="evenodd" d="M111.901 30.0153H109.546V35.5074H108.014V30.0153H105.658V28.6172H111.901V30.0153Z" fill="#E4E4E3"/>
<path fill-rule="evenodd" clip-rule="evenodd" d="M117.695 30.0524C117.383 29.9386 117.035 29.8816 116.651 29.8816C116.315 29.8816 116.012 29.9349 115.741 30.041C115.47 30.1476 115.239 30.2982 115.047 30.4943C114.855 30.6888 114.708 30.9206 114.604 31.1876C114.502 31.4557 114.451 31.747 114.451 32.0621C114.451 32.3917 114.503 32.6898 114.61 32.9573C114.716 33.2243 114.866 33.4519 115.057 33.6413C115.249 33.8286 115.479 33.9761 115.746 34.0832C116.013 34.1888 116.308 34.2426 116.631 34.2426C117.021 34.2426 117.387 34.1753 117.726 34.0413C118.065 33.9083 118.369 33.7148 118.636 33.4602L119.511 34.5406C118.729 35.2811 117.742 35.651 116.548 35.651C116.013 35.651 115.524 35.5672 115.078 35.3996C114.632 35.2314 114.25 34.9913 113.931 34.6798C113.612 34.3683 113.363 33.9921 113.185 33.5534C113.007 33.1146 112.918 32.6246 112.918 32.0828C112.918 31.5897 113.005 31.1224 113.18 30.6837C113.355 30.2449 113.607 29.8609 113.936 29.5319C114.265 29.2028 114.663 28.944 115.129 28.7557C115.595 28.5668 116.123 28.4727 116.713 28.4727C117.248 28.4727 117.738 28.5534 118.183 28.7138C118.629 28.8757 119.027 29.1107 119.377 29.419L118.523 30.5393C118.283 30.3277 118.007 30.1642 117.695 30.0524Z" fill="#E4E4E3"/>
<path fill-rule="evenodd" clip-rule="evenodd" d="M122.461 31.2396L123.212 31.1578L125.156 28.6172H127.058L124.497 31.8362L127.305 35.5074H125.32L123.222 32.5663H122.461V35.5074H120.939V28.6172H122.461V31.2396Z" fill="#E4E4E3"/>
<path fill-rule="evenodd" clip-rule="evenodd" d="M130.229 33.2043L133.562 28.6172H134.919V35.5074H133.387V31.178L130.219 35.5074H128.708V28.6172H130.229V33.2043Z" fill="#E4E4E3"/>
<path fill-rule="evenodd" clip-rule="evenodd" d="M139.849 31.0755H139.952L141.32 28.6172H143.223L141.022 32.0111L143.439 35.5074H141.444L139.901 32.854H139.798L138.276 35.5074H136.292L138.708 31.9283L136.507 28.6172H138.431L139.849 31.0755Z" fill="#E4E4E3"/>
<path fill-rule="evenodd" clip-rule="evenodd" d="M50.1366 42.3635H46.4648V47.855H44.9224V40.9648H50.1366V42.3635Z" fill="#E4E4E3"/>
<path fill-rule="evenodd" clip-rule="evenodd" d="M55.7143 41.1439C56.0502 41.2644 56.3399 41.4321 56.5831 41.6484C56.8268 41.8641 57.0136 42.1255 57.144 42.4302C57.2739 42.735 57.3391 43.077 57.3391 43.4537C57.3391 43.8506 57.2656 44.2055 57.1182 44.517C56.9707 44.8301 56.7684 45.0935 56.5112 45.3092C56.254 45.5255 55.9508 45.6901 55.6016 45.8034C55.2518 45.9162 54.8745 45.9726 54.4699 45.9726H53.0713V47.855H51.5288V40.9648H54.5936C55.0044 40.9648 55.378 41.0243 55.7143 41.1439ZM54.4699 44.605C54.8813 44.605 55.2036 44.502 55.437 44.2961C55.6693 44.0907 55.7863 43.8138 55.7863 43.4635C55.7863 43.1205 55.6818 42.8483 55.4727 42.6465C55.2631 42.4437 54.9496 42.3423 54.5315 42.3423H53.0713V44.605H54.4699Z" fill="#E4E4E3"/>
<path fill-rule="evenodd" clip-rule="evenodd" d="M65.2002 47.857H63.4926L62.9685 46.4889H60.0165L59.5027 47.857H57.8262L60.6545 40.957H62.3512L65.2002 47.857ZM62.4645 45.1322L61.5491 42.5093H61.4462L60.521 45.1322H62.4645Z" fill="#E4E4E3"/>
<path fill-rule="evenodd" clip-rule="evenodd" d="M68.1563 43.6586H71.1694V40.9648H72.7227V47.855H71.1694V45.0883H68.1563V47.855H66.6035V40.9648H68.1563V43.6586Z" fill="#E4E4E3"/>
<path fill-rule="evenodd" clip-rule="evenodd" d="M80.3884 42.3635H78.033V47.855H76.5009V42.3635H74.1455V40.9648H80.3884V42.3635Z" fill="#E4E4E3"/>
<path fill-rule="evenodd" clip-rule="evenodd" d="M86.547 41.0925C86.9998 41.2741 87.3853 41.5261 87.7045 41.8485C88.0228 42.1698 88.2717 42.5496 88.4496 42.9847C88.6282 43.4194 88.7172 43.8949 88.7172 44.4092C88.7172 44.9034 88.6282 45.367 88.4496 45.8027C88.2717 46.2379 88.0212 46.6182 87.6988 46.9442C87.377 47.2696 86.9915 47.5268 86.5419 47.7151C86.0927 47.9045 85.5975 47.9982 85.0563 47.9982C84.5208 47.9982 84.0313 47.9081 83.5852 47.7255C83.1397 47.5444 82.7542 47.2914 82.4282 46.97C82.1028 46.6477 81.8508 46.2663 81.6728 45.8275C81.4943 45.3888 81.4053 44.9169 81.4053 44.4092C81.4053 43.9151 81.4943 43.4494 81.6728 43.0106C81.8508 42.5718 82.1028 42.191 82.4282 41.8686C82.7542 41.5468 83.1397 41.2907 83.5852 41.1033C84.0313 40.914 84.5208 40.8203 85.0563 40.8203C85.5975 40.8203 86.0948 40.9103 86.547 41.0925ZM84.1663 42.3726C83.9024 42.4901 83.6794 42.6474 83.4978 42.8461C83.3162 43.0442 83.1775 43.2781 83.0818 43.5451C82.985 43.8132 82.9374 44.1009 82.9374 44.4092C82.9374 44.7176 82.985 45.0074 83.0818 45.2785C83.1775 45.5492 83.3182 45.7841 83.503 45.9828C83.6882 46.1809 83.9107 46.3372 84.1715 46.4511C84.4323 46.5628 84.7272 46.6197 85.0563 46.6197C85.3921 46.6197 85.6917 46.5613 85.9561 46.4459C86.2195 46.3284 86.443 46.1696 86.6241 45.9667C86.8058 45.7649 86.9434 45.5295 87.0355 45.2625C87.1281 44.9955 87.1747 44.7109 87.1747 44.4092C87.1747 44.0936 87.1266 43.8002 87.0308 43.5301C86.9346 43.2585 86.7959 43.0241 86.6143 42.8249C86.4322 42.6262 86.2097 42.4725 85.9453 42.3628C85.6814 42.2531 85.3854 42.1988 85.0563 42.1988C84.7272 42.1988 84.4302 42.2562 84.1663 42.3726Z" fill="#E4E4E3"/>
<path fill-rule="evenodd" clip-rule="evenodd" d="M95.0805 41.4688C95.4955 41.8041 95.703 42.2636 95.703 42.8468C95.703 43.1344 95.643 43.3916 95.5235 43.6177C95.4029 43.8439 95.2399 44.012 95.0345 44.1217V44.2138C95.3703 44.3246 95.6399 44.5212 95.8417 44.8053C96.044 45.0898 96.1454 45.4215 96.1454 45.7982C96.1454 46.0797 96.0958 46.3441 95.9959 46.5956C95.8971 46.845 95.7429 47.0628 95.5333 47.2486C95.3243 47.4328 95.0583 47.5803 94.7364 47.691C94.4141 47.7997 94.0333 47.855 93.595 47.855H90.2627V40.9648H93.3068C94.0746 40.9648 94.6661 41.1325 95.0805 41.4688ZM93.3689 43.6798C93.6291 43.6798 93.833 43.6162 93.9805 43.4889C94.1279 43.3621 94.2014 43.1893 94.2014 42.9694C94.2014 42.5109 93.9065 42.2812 93.3171 42.2812H91.7953V43.6798H93.3689ZM93.6152 46.5387C94.294 46.5387 94.6335 46.267 94.6335 45.7263C94.6335 45.465 94.5445 45.2689 94.366 45.1349C94.188 45.0014 93.9344 44.9341 93.6053 44.9341H91.7953V46.5387H93.6152Z" fill="#E4E4E3"/>
</svg>
